<svg version="1.1" xmlns="http://www.w3.org/2000/svg" viewBox="0 0 220 100" width="440" height="200">
  <!-- svg-source:excalidraw -->
  
  <defs>
    <style>
      @font-face {
        font-family: "Virgil";
        src: url("https://excalidraw.com/Virgil.woff2");
      }
      @font-face {
        font-family: "Cascadia";
        src: url("https://excalidraw.com/Cascadia.woff2");
      }
    </style>
  </defs>
  <g stroke-linecap="round" transform="translate(10 10) rotate(0 20 20)"><path d="M-1.79 1.94 C8.15 0.97, 18.94 -0.24, 40.01 -1.19 M0.56 -0.55 C15.34 -0.38, 30.81 -0.84, 40.94 0.8 M39.94 0.67 C41.71 8.59, 38.26 15.88, 39.21 38.45 M40.41 -0.03 C39.71 7.75, 39.85 17.91, 39.94 40.04 M38.1 39.12 C27.8 38.09, 15.64 40.91, -1.02 40.99 M39.34 39.14 C28.54 40.77, 15.7 41.01, 0.37 39.88 M0.51 39.23 C-0.9 30.81, -0.78 20.77, -1.87 -0.42 M0.77 39.15 C-0.67 31.61, -0.62 22.15, 0.5 0.52" stroke="#000000" stroke-width="1" fill="none"></path></g><g transform="translate(15 18.5) rotate(0 15 11.5)"><text x="15" y="17" font-family="Virgil, Segoe UI Emoji" font-size="20px" fill="#000000" text-anchor="middle" style="white-space: pre;" direction="ltr">A</text></g><g stroke-linecap="round" transform="translate(10 50) rotate(0 20 20)"><path d="M-0.09 1.21 C13.22 1.78, 30.06 -1.96, 39.85 -0.73 M0.16 -0.86 C11.54 -0.74, 22.97 -1.19, 39.23 0.52 M38.23 0.31 C41.26 13.5, 40.06 26.86, 38.75 39.5 M39.1 -0.96 C40.33 7.69, 40.32 16.42, 40.59 40.89 M40.82 39.81 C31.93 41, 21.02 38.9, -0.11 40.71 M40.05 39.6 C26.66 38.88, 13.77 38.94, -0.73 39.29 M0.21 38.17 C-1.4 25.91, 1.38 9.16, -0.72 0.11 M0.96 39.84 C-0.25 25.47, -0.79 10.97, -0.18 1" stroke="#000000" stroke-width="1" fill="none"></path></g><g transform="translate(15 57.5) rotate(0 15 11.5)"><text x="15" y="17" font-family="Virgil, Segoe UI Emoji" font-size="20px" fill="#000000" text-anchor="middle" style="white-space: pre;" direction="ltr">65</text></g><g stroke-linecap="round" transform="translate(50 10) rotate(0 20 20)"><path d="M-0.79 -1.55 C10.97 -1.41, 26.33 0.94, 39.93 0.04 M-0.06 0.04 C8.26 -0.88, 16.65 -1.21, 39.56 -0.49 M38.98 0.99 C39.67 9.55, 41.4 15.45, 38.28 41.28 M40.37 -0.12 C39.28 13.59, 40.32 27.55, 39.61 39.54 M38.13 39.58 C26.04 38.4, 14.16 41.42, -1.7 38.07 M40.5 40.52 C27.26 39.29, 15.22 40.33, 0.38 40.38 M0.37 38.73 C0.85 23.79, 2.06 8.88, -0.29 1.17 M-0.46 39.07 C0.27 27.61, 1.03 16.74, -0.57 -0.31" stroke="#000000" stroke-width="1" fill="none"></path></g><g stroke-linecap="round" transform="translate(90 10) rotate(0 20 20)"><path d="M1.03 0.81 C8.84 0.35, 16.04 0.62, 41.27 -0.12 M-0.25 -0.95 C11.71 -0.24, 23.38 -0.71, 40.5 -0.51 M41.78 -1.31 C38.29 15.26, 40.83 27.78, 41.3 40.74 M40.36 0.25 C39.34 11.07, 39.78 22.66, 39.67 39.06 M38.58 41.55 C27.14 37.78, 17.89 37.88, -1.74 41 M40.05 40.68 C26.3 40.24, 12.79 39.7, -0.1 40.19 M1.99 40.57 C-0.45 31.72, -0.37 20.3, 1.72 -0.92 M0.88 39.87 C-0.61 31.39, -0.36 24.14, 0.08 0.41" stroke="#000000" stroke-width="1" fill="none"></path></g><g stroke-linecap="round" transform="translate(130 10) rotate(0 20 20)"><path d="M0.04 -1.77 C14.38 1.29, 28.01 0.09, 39.61 -1.25 M-0.49 -0.9 C10.04 0.68, 21.48 0.67, 40.03 0.59 M41.28 0.82 C39.55 16.86, 40.48 30.88, 38.64 39.89 M39.54 0.05 C39.7 13.09, 39.16 26.63, 39.12 39.27 M38.07 40.21 C29.01 37.92, 22.68 40.7, -0.65 39.28 M40.38 40.96 C27.62 40.05, 15.75 39.52, 0.39 39.82 M1.17 39.78 C-0.89 25.73, -1.04 6.18, 0.22 -1.65 M-0.31 39.68 C0.78 24.58, 0.46 8.9, -0.78 -0.53" stroke="#000000" stroke-width="1" fill="none"></path></g><g stroke-linecap="round" transform="translate(170 10) rotate(0 20 20)"><path d="M-0.12 0.07 C8.06 -1.5, 16.4 -2.16, 39.12 -0.98 M-0.51 0.5 C8.41 0.38, 17.65 -0.86, 39.14 0.64 M40.74 -0.23 C38.61 13.54, 40.67 27.8, 39.23 39.07 M39.06 -0.21 C38.96 11.47, 39.13 25.19, 39.15 39.04 M41 41.04 C26.94 38.94, 15.27 41.01, 0.76 40.77 M40.19 39.36 C24.55 39.78, 9.31 40.24, -0.15 40.59 M-0.92 38.15 C0.38 26.78, 1.91 16.6, -1.14 -0.63 M0.41 39.91 C-1.07 28.75, 0.19 18.95, 0.06 -0.16" stroke="#000000" stroke-width="1" fill="none"></path></g><g transform="translate(55 17.5) rotate(0 15 11.5)"><text x="15" y="17" font-family="Virgil, Segoe UI Emoji" font-size="20px" fill="#000000" text-anchor="middle" style="white-space: pre;" direction="ltr">B</text></g><g transform="translate(95 17.5) rotate(0 15 11.5)"><text x="15" y="17" font-family="Virgil, Segoe UI Emoji" font-size="20px" fill="#000000" text-anchor="middle" style="white-space: pre;" direction="ltr">C</text></g><g transform="translate(135 17.5) rotate(0 15 11.5)"><text x="15" y="17" font-family="Virgil, Segoe UI Emoji" font-size="20px" fill="#000000" text-anchor="middle" style="white-space: pre;" direction="ltr">D</text></g><g transform="translate(175 17.5) rotate(0 15 11.5)"><text x="15" y="17" font-family="Virgil, Segoe UI Emoji" font-size="20px" fill="#000000" text-anchor="middle" style="white-space: pre;" direction="ltr">E</text></g><g stroke-linecap="round" transform="translate(50 50) rotate(0 20 20)"><path d="M0.11 1.36 C14.85 0.91, 30.09 -0.18, 39.8 0.37 M1 0.28 C9.31 0.66, 18.81 -0.32, 40.86 -0.46 M41.75 -0.26 C38.9 7.66, 39.4 18.04, 40.17 40.82 M40.48 0.39 C39.75 11.47, 39.86 24.07, 39.07 40.36 M38.06 38.12 C26.09 40.71, 10.64 40.52, 0.1 40.46 M40.67 39.27 C31.66 39.63, 21.02 40.59, 0.69 40.27 M-0.69 40.89 C-1.13 26.74, 0.03 9.98, -1.39 0.68 M0.16 39.57 C0.53 30.94, 0.81 22.04, -0.41 -0.22" stroke="#000000" stroke-width="1" fill="none"></path></g><g stroke-linecap="round" transform="translate(90 50) rotate(0 20 20)"><path d="M0.77 1.92 C11.89 -0.35, 24.8 -1.42, 40.79 -0.36 M0.59 -0.11 C15.59 0.92, 31.51 -0.87, 40.11 -0.83 M39.37 -0.64 C41.4 15.67, 40.76 30.82, 38.45 38.93 M39.84 0.17 C40.98 13, 40.51 28.71, 39.79 39.19 M41.03 41.49 C32.73 40.4, 24.23 38.87, -0.6 41.73 M39.29 39.28 C25.58 41, 10.95 40.95, 0.58 39.55 M1.28 40.26 C-1.11 27.99, 0.5 17.34, -0.31 1.7 M0.09 40.75 C0.49 26.93, -0.05 14.56, -0.26 0.54" stroke="#000000" stroke-width="1" fill="none"></path></g><g stroke-linecap="round" transform="translate(130 50) rotate(0 20 20)"><path d="M0.37 -1.27 C16.63 -0.32, 33.68 0.61, 39.71 1.17 M-0.46 -0.93 C11.68 -1.17, 24.01 -0.48, 39.43 -0.31 M40.82 -0.19 C38.74 9.65, 41.25 22.21, 40.13 39.69 M40.36 0.86 C40.12 11.87, 39.36 24.41, 40.76 40.51 M40.46 38.56 C24.41 41.75, 11.35 38.57, 1.57 38.58 M40.27 40.64 C31.47 39.83, 21.44 40.72, -0.45 40.64 M0.68 38.57 C-0.12 29.18, 0.51 14.1, 0.93 0.17 M-0.22 39.87 C-0.39 25.54, -0.56 10.38, 0.91 -0.22" stroke="#000000" stroke-width="1" fill="none"></path></g><g stroke-linecap="round" transform="translate(170 50) rotate(0 20 20)"><path d="M1.99 0.57 C9.17 1.25, 18.7 -0.71, 41.72 -0.92 M0.88 -0.13 C7.72 0.02, 16.27 1.06, 40.08 0.41 M40.96 0.77 C39.82 11.31, 40.03 24.9, 38.14 40.72 M39.03 -0.94 C40.68 15.94, 40.67 31.28, 40.05 40.23 M41.33 38.55 C32.44 38.92, 20.3 40.83, 1.38 40.55 M39.65 40.45 C25.01 40.46, 11.04 39.35, -0.7 40.34 M0.33 39.15 C0.99 31.03, 1.56 22.37, -0.82 -0.44 M-0.43 40.4 C1.01 28.31, 0.08 17.42, -0.22 0.88" stroke="#000000" stroke-width="1" fill="none"></path></g><g transform="translate(55 57.5) rotate(0 15 11.5)"><text x="15" y="17" font-family="Virgil, Segoe UI Emoji" font-size="20px" fill="#000000" text-anchor="middle" style="white-space: pre;" direction="ltr">66</text></g><g transform="translate(95 57.5) rotate(0 15 11.5)"><text x="15" y="17" font-family="Virgil, Segoe UI Emoji" font-size="20px" fill="#000000" text-anchor="middle" style="white-space: pre;" direction="ltr">67</text></g><g transform="translate(135 57.5) rotate(0 15 11.5)"><text x="15" y="17" font-family="Virgil, Segoe UI Emoji" font-size="20px" fill="#000000" text-anchor="middle" style="white-space: pre;" direction="ltr">68</text></g><g transform="translate(175 57.5) rotate(0 15 11.5)"><text x="15" y="17" font-family="Virgil, Segoe UI Emoji" font-size="20px" fill="#000000" text-anchor="middle" style="white-space: pre;" direction="ltr">69</text></g></svg>